<svg width="20" height="21" viewBox="0 0 20 21" fill="none" xmlns="http://www.w3.org/2000/svg">
<mask id="mask0_24_94" style="mask-type:alpha" maskUnits="userSpaceOnUse" x="0" y="0" width="20" height="21">
<rect y="0.5" width="20" height="20" fill="#D9D9D9"/>
</mask>
<g mask="url(#mask0_24_94)">
<path d="M3.33317 17.1667C2.87484 17.1667 2.48262 17.0037 2.1565 16.6775C1.82984 16.3509 1.6665 15.9584 1.6665 15.5V5.50004C1.6665 5.04171 1.82984 4.64948 2.1565 4.32337C2.48262 3.99671 2.87484 3.83337 3.33317 3.83337H16.6665C17.1248 3.83337 17.5173 3.99671 17.844 4.32337C18.1701 4.64948 18.3332 5.04171 18.3332 5.50004V15.5C18.3332 15.9584 18.1701 16.3509 17.844 16.6775C17.5173 17.0037 17.1248 17.1667 16.6665 17.1667H3.33317ZM9.99984 11.3334L3.33317 7.16671V15.5H16.6665V7.16671L9.99984 11.3334ZM9.99984 9.66671L16.6665 5.50004H3.33317L9.99984 9.66671ZM3.33317 7.16671V5.50004V15.5V7.16671Z" fill="#252525"/>
</g>
</svg>
