<svg width="21" height="20" viewBox="0 0 21 20" fill="none" xmlns="http://www.w3.org/2000/svg">
<path fill-rule="evenodd" clip-rule="evenodd" d="M11.874 19.906C11.4239 19.968 10.9642 20 10.4971 20C10.4035 20 10.3102 19.9987 10.2172 19.9962C10.3102 19.9987 10.4035 19.9999 10.4971 19.9999C10.9643 19.9999 11.4239 19.9673 11.874 19.906ZM12.0594 19.8787V12.8912H14.3896L14.8326 9.99994H12.0594V8.12398C12.0594 7.33365 12.4462 6.56161 13.6893 6.56161H14.9507V4.10063C14.9507 4.10063 13.806 3.90516 12.7119 3.90516C10.4282 3.90516 8.9347 5.28893 8.9347 7.79631V9.99994H6.39497V12.8912H8.9347V19.8787C4.15397 19.1286 0.49707 14.9914 0.49707 10C0.49707 4.47715 4.97422 0 10.4971 0C16.0199 0 20.4971 4.47715 20.4971 10C20.4971 14.9914 16.8402 19.1286 12.0594 19.8787Z" fill="#1B5459"/>
</svg>
