<svg width="29" height="38" viewBox="0 0 29 38" fill="none" xmlns="http://www.w3.org/2000/svg">
<g clip-path="url(#clip0_17_15)">
<path d="M17.1 17.2L29 1.3V0H24.2V1.3L24.8 2.1L20 8.5V5.7C20 2.6 17.4 0 14.2 0C11.1 0 8.5 2.6 8.5 5.7V17.1H2.9V3.8L4.8 1.3V0H0V37.1H4.8V35.8L2.9 33.3V20H8.5V31.3C8.5 34.5 11.1 37 14.2 37C17.4 37 19.9 34.4 19.9 31.3V28.5L24.7 34.9L24.1 35.7V37H29V35.7L15 17.1H11.4V5.7C11.4 4.2 12.7 2.9 14.2 2.9C15.8 2.9 17 4.2 17 5.7V17.2H17.1ZM13.5 20L17 24.7V31.3C17 32.9 15.7 34.1 14.2 34.1C12.7 34.1 11.4 32.8 11.4 31.3V20H13.5Z" fill="#FFF3E0"/>
</g>
<defs>
<clipPath id="clip0_17_15">
<rect width="29" height="37.1" fill="white"/>
</clipPath>
</defs>
</svg>
