<svg width="21" height="20" viewBox="0 0 21 20" fill="none" xmlns="http://www.w3.org/2000/svg">
<g clip-path="url(#clip0_24_135)">
<path d="M4.25098 0.90625C3.61816 1.15234 3.08301 1.48047 2.54785 2.01562C2.0127 2.54687 1.68457 3.08594 1.43848 3.71484C1.2002 4.32422 1.04004 5.02344 0.993164 6.04687C0.946289 7.07031 0.93457 7.39844 0.93457 10.0078C0.93457 12.6172 0.946289 12.9453 0.993164 13.9687C1.04004 14.9922 1.2041 15.6914 1.43848 16.3008C1.68457 16.9336 2.0127 17.4687 2.54785 18.0039C3.08301 18.5391 3.61816 18.8672 4.25098 19.1133C4.86035 19.3516 5.55957 19.5117 6.58301 19.5586C7.60645 19.6055 7.93457 19.6172 10.5439 19.6172C13.1533 19.6172 13.4814 19.6055 14.5049 19.5586C15.5283 19.5117 16.2275 19.3477 16.8369 19.1133C17.4697 18.8672 18.0049 18.5391 18.54 18.0039C19.0752 17.4687 19.4033 16.9336 19.6494 16.3008C19.8877 15.6914 20.0479 14.9922 20.0947 13.9687C20.1416 12.9453 20.1533 12.6172 20.1533 10.0078C20.1533 7.39844 20.1416 7.07031 20.0947 6.04687C20.0479 5.02344 19.8838 4.32422 19.6494 3.71484C19.4033 3.08594 19.0752 2.54687 18.5439 2.01562C18.0088 1.48047 17.4736 1.15234 16.8408 0.90625C16.2314 0.667969 15.5322 0.507812 14.5088 0.460937C13.4854 0.414062 13.1572 0.402344 10.5479 0.402344C7.93848 0.402344 7.61035 0.414062 6.58691 0.460937C5.55957 0.503906 4.86035 0.667969 4.25098 0.90625ZM14.4268 2.1875C15.3643 2.23047 15.8721 2.38672 16.2119 2.51953C16.6611 2.69531 16.9814 2.90234 17.3174 3.23828C17.6533 3.57422 17.8604 3.89453 18.0361 4.34375C18.1689 4.68359 18.3252 5.19141 18.3682 6.12891C18.415 7.14062 18.4229 7.44531 18.4229 10.0117C18.4229 12.5781 18.4111 12.8828 18.3682 13.8945C18.3252 14.832 18.1689 15.3398 18.0361 15.6797C17.8604 16.1289 17.6533 16.4492 17.3174 16.7852C16.9814 17.1211 16.6611 17.3281 16.2119 17.5039C15.8721 17.6367 15.3643 17.793 14.4268 17.8359C13.415 17.8828 13.1104 17.8906 10.5439 17.8906C7.97754 17.8906 7.67285 17.8789 6.66113 17.8359C5.72363 17.793 5.21582 17.6367 4.87598 17.5039C4.42676 17.3281 4.10645 17.1211 3.77051 16.7852C3.43457 16.4492 3.22754 16.1289 3.05176 15.6797C2.91895 15.3398 2.7627 14.832 2.71973 13.8945C2.67285 12.8828 2.66504 12.5781 2.66504 10.0117C2.66504 7.44531 2.67676 7.14062 2.71973 6.12891C2.7627 5.19141 2.91895 4.68359 3.05176 4.34375C3.22754 3.89453 3.43457 3.57422 3.77051 3.23828C4.10645 2.90234 4.42676 2.69531 4.87598 2.51953C5.21582 2.38672 5.72363 2.23047 6.66113 2.1875C7.67285 2.14062 7.97754 2.13281 10.5439 2.13281C13.1104 2.13281 13.415 2.14062 14.4268 2.1875Z" fill="#1B5459"/>
<path d="M5.61035 10.0117C5.61035 12.7383 7.82129 14.9453 10.5439 14.9453C13.2666 14.9453 15.4775 12.7344 15.4775 10.0117C15.4775 7.28906 13.2705 5.07812 10.5439 5.07812C7.81738 5.07812 5.61035 7.28516 5.61035 10.0117ZM13.7471 10.0117C13.7471 11.7812 12.3135 13.2148 10.5439 13.2148C8.77442 13.2148 7.34082 11.7812 7.34082 10.0117C7.34082 8.24219 8.77442 6.80859 10.5439 6.80859C12.3135 6.80859 13.7471 8.24219 13.7471 10.0117Z" fill="#1B5459"/>
<path d="M15.6768 6.03516C16.3132 6.03516 16.8291 5.51923 16.8291 4.88281C16.8291 4.24639 16.3132 3.73047 15.6768 3.73047C15.0403 3.73047 14.5244 4.24639 14.5244 4.88281C14.5244 5.51923 15.0403 6.03516 15.6768 6.03516Z" fill="#1B5459"/>
</g>
<defs>
<clipPath id="clip0_24_135">
<rect width="20" height="20" fill="white" transform="translate(0.49707)"/>
</clipPath>
</defs>
</svg>
