<svg width="21" height="20" viewBox="0 0 21 20" fill="none" xmlns="http://www.w3.org/2000/svg">
<path fill-rule="evenodd" clip-rule="evenodd" d="M18.2748 20H2.71929C1.49199 20 0.49707 19.0051 0.49707 17.7778V2.22222C0.49707 0.994923 1.49199 0 2.71929 0H18.2748C19.5021 0 20.4971 0.994923 20.4971 2.22222V17.7778C20.4971 19.0051 19.5021 20 18.2748 20ZM14.7514 17.2222H17.7193V11.1253C17.7193 8.54569 16.257 7.29839 14.2144 7.29839C12.171 7.29839 11.311 8.8897 11.311 8.8897V7.59259H8.45077V17.2222H11.311V12.1673C11.311 10.8128 11.9345 10.0068 13.1278 10.0068C14.2248 10.0068 14.7514 10.7813 14.7514 12.1673V17.2222ZM3.27485 4.55472C3.27485 5.53602 4.06431 6.33167 5.03856 6.33167C6.0128 6.33167 6.80179 5.53602 6.80179 4.55472C6.80179 3.57343 6.0128 2.77778 5.03856 2.77778C4.06431 2.77778 3.27485 3.57343 3.27485 4.55472ZM6.54413 17.2222H3.56167V7.59259H6.54413V17.2222Z" fill="#1B5459"/>
</svg>
