<svg width="20" height="21" viewBox="0 0 20 21" fill="none" xmlns="http://www.w3.org/2000/svg">
<mask id="mask0_24_108" style="mask-type:alpha" maskUnits="userSpaceOnUse" x="0" y="0" width="20" height="21">
<rect y="0.5" width="20" height="20" fill="#D9D9D9"/>
</mask>
<g mask="url(#mask0_24_108)">
<path d="M10.0002 10.5C10.4585 10.5 10.851 10.3366 11.1777 10.01C11.5038 9.68385 11.6668 9.29163 11.6668 8.83329C11.6668 8.37496 11.5038 7.98246 11.1777 7.65579C10.851 7.32968 10.4585 7.16663 10.0002 7.16663C9.54183 7.16663 9.14961 7.32968 8.8235 7.65579C8.49683 7.98246 8.3335 8.37496 8.3335 8.83329C8.3335 9.29163 8.49683 9.68385 8.8235 10.01C9.14961 10.3366 9.54183 10.5 10.0002 10.5ZM10.0002 16.625C11.6946 15.0694 12.9516 13.6561 13.771 12.385C14.5904 11.1144 15.0002 9.98607 15.0002 8.99996C15.0002 7.48607 14.5174 6.24635 13.5518 5.28079C12.5868 4.31579 11.4029 3.83329 10.0002 3.83329C8.59738 3.83329 7.41322 4.31579 6.44766 5.28079C5.48266 6.24635 5.00016 7.48607 5.00016 8.99996C5.00016 9.98607 5.40988 11.1144 6.22933 12.385C7.04877 13.6561 8.30572 15.0694 10.0002 16.625ZM10.0002 18.8333C7.76405 16.9305 6.09405 15.163 4.99016 13.5308C3.88572 11.8991 3.3335 10.3888 3.3335 8.99996C3.3335 6.91663 4.00377 5.2569 5.34433 4.02079C6.68433 2.78468 8.23627 2.16663 10.0002 2.16663C11.7641 2.16663 13.316 2.78468 14.656 4.02079C15.9966 5.2569 16.6668 6.91663 16.6668 8.99996C16.6668 10.3888 16.1149 11.8991 15.011 13.5308C13.9066 15.163 12.2363 16.9305 10.0002 18.8333Z" fill="#252525"/>
</g>
</svg>
