<svg width="16" height="17" viewBox="0 0 16 17" fill="none" xmlns="http://www.w3.org/2000/svg">
<g clip-path="url(#clip0_24_122)">
<path fill-rule="evenodd" clip-rule="evenodd" d="M13.737 2.82259C12.2593 1.34312 10.2941 0.528003 8.20035 0.5271C3.88619 0.5271 0.374941 4.03812 0.373209 8.35364C0.372682 9.7331 0.733024 11.0796 1.41801 12.2666L0.307617 16.3225L4.45686 15.2341C5.60009 15.8576 6.88723 16.1863 8.19719 16.1868H8.20042C12.5141 16.1868 16.0257 12.6753 16.0275 8.35974C16.0282 6.26847 15.2148 4.30199 13.737 2.82259ZM8.20042 14.8649H8.19779C7.03046 14.8645 5.8855 14.5508 4.88671 13.9581L4.64912 13.8172L2.18689 14.463L2.84409 12.0624L2.68941 11.8162C2.03824 10.7805 1.69424 9.58332 1.69476 8.35401C1.6962 4.76716 4.61455 1.84903 8.20306 1.84903C9.94061 1.84963 11.5741 2.52717 12.8023 3.75692C14.0306 4.98661 14.7065 6.62106 14.7059 8.35936C14.7044 11.9465 11.7861 14.8649 8.20042 14.8649ZM11.7688 9.99253C11.5733 9.89471 10.6118 9.42156 10.4325 9.35627C10.2533 9.29113 10.1228 9.25845 9.99249 9.45424C9.86214 9.65004 9.48726 10.0905 9.37317 10.2211C9.25908 10.3515 9.145 10.3679 8.9495 10.27C8.75385 10.1721 8.12376 9.96558 7.37672 9.29926C6.79535 8.7807 6.40286 8.14029 6.28877 7.94442C6.17468 7.74862 6.27657 7.64282 6.37454 7.5453C6.4625 7.45764 6.57011 7.31682 6.66794 7.20265C6.76576 7.08849 6.79829 7.00685 6.86351 6.87635C6.92872 6.74584 6.89611 6.6316 6.84717 6.53378C6.79829 6.4358 6.40715 5.47316 6.24419 5.08157C6.08544 4.70029 5.92421 4.75187 5.80417 4.74585C5.69023 4.7402 5.55972 4.73892 5.42929 4.73892C5.29894 4.73892 5.0871 4.78787 4.90779 4.98367C4.72857 5.17947 4.22333 5.65262 4.22333 6.61526C4.22333 7.5779 4.92406 8.50779 5.02188 8.63837C5.11963 8.76888 6.40097 10.7442 8.36279 11.5914C8.82931 11.793 9.19364 11.9132 9.4777 12.0034C9.94626 12.1523 10.3726 12.1312 10.7095 12.0809C11.0853 12.0248 11.8666 11.6078 12.0295 11.151C12.1925 10.6941 12.1925 10.3025 12.1436 10.2209C12.0948 10.1395 11.9644 10.0905 11.7688 9.99253Z" fill="#252525"/>
</g>
<defs>
<clipPath id="clip0_24_122">
<rect width="16" height="16" fill="white" transform="translate(0 0.5)"/>
</clipPath>
</defs>
</svg>
