<svg width="245" height="74" viewBox="0 0 245 74" fill="none" xmlns="http://www.w3.org/2000/svg">
<g clip-path="url(#clip0_5_47)">
<path d="M31.9 28.1V34.4L52.4 7.1L56.2 2V0.799997H48.6V2.1L50 4L38.1 19.8V11.2C38.1 5.4 33.4 0.699997 27.6 0.699997C21.8 0.699997 17.1 5.5 17.1 11.3V35.1H3.8V7.1L7.6 2V0.799997H0V73.2H7.6V71.9L3.8 66.8V38.9H17.1V62.7C17.1 68.5 21.8 73.2 27.6 73.2C33.4 73.2 38.1 68.5 38.1 62.7V54.1L50 70L48.6 71.9V73.2H56.2V71.9L52.4 66.8L28.6 35.1H21V11.3C21 7.6 24 4.6 27.7 4.6C31.4 4.6 34.4 7.6 34.4 11.3V25L31.9 28.1ZM26.7 38.9L34.3 49.1V62.8C34.3 66.5 31.3 69.5 27.6 69.5C23.9 69.5 20.9 66.5 20.9 62.8V38.9H26.7Z" fill="#1D5157"/>
<path d="M84.6 19.5C82.9 19.5 81.4 19.1 80.1 18.3C78.8 17.5 77.8 16.4 77.1 14.9C76.4 13.5 76 11.8 76 9.9C76 8 76.4 6.4 77.1 4.9C77.8 3.5 78.9 2.3 80.2 1.5C81.5 0.700003 83.1 0.300003 85 0.300003C87.1 0.300003 88.8 0.800003 90.2 1.8C91.6 2.8 92.5 4.2 92.9 5.9H90.3C90.1 4.8 89.5 3.9 88.5 3.3C87.6 2.6 86.4 2.3 84.9 2.3C83.5 2.3 82.4 2.6 81.4 3.2C80.4 3.8 79.6 4.7 79.1 5.8C78.5 6.9 78.3 8.3 78.3 9.8C78.3 11.4 78.6 12.7 79.1 13.8C79.6 14.9 80.4 15.8 81.4 16.4C82.4 17 83.5 17.3 84.8 17.3C86.8 17.3 88.3 16.7 89.3 15.6C90.3 14.4 90.9 12.9 91 10.9H85.7V9.3H93.3V19.2H91.3L91.1 16.2C90.4 17.3 89.6 18.1 88.6 18.7C87.5 19.2 86.2 19.5 84.6 19.5Z" fill="#1D5157"/>
<path d="M100.9 19.5C99.7996 19.5 98.8996 19.3 98.1996 18.9C97.4996 18.5 96.8996 18 96.5996 17.4C96.1996 16.8 96.0996 16.1 96.0996 15.4C96.0996 14.1 96.5996 13 97.5996 12.3C98.5996 11.6 99.9996 11.2 101.8 11.2H105.3V11C105.3 9.9 105 9 104.4 8.4C103.8 7.8 103 7.7 102 7.7C101.1 7.7 100.4 7.9 99.7996 8.3C99.1996 8.7 98.7996 9.4 98.5996 10.2H96.2996C96.3996 9.2 96.6996 8.4 97.2996 7.8C97.8996 7.2 98.4996 6.7 99.3996 6.3C100.2 6 101.1 5.8 102 5.8C103.8 5.8 105.2 6.3 106.1 7.3C107 8.3 107.5 9.6 107.5 11.2V19.3H105.5L105.4 17C105 17.7 104.5 18.4 103.8 18.9C103.1 19.4 102.1 19.5 100.9 19.5ZM101.2 17.6C102 17.6 102.8 17.4 103.4 16.9C104 16.5 104.5 15.9 104.8 15.2C105.1 14.5 105.3 13.8 105.3 13H101.9C100.6 13 99.6996 13.2 99.0996 13.7C98.5996 14.1 98.2996 14.7 98.2996 15.4C98.2996 16.1 98.5996 16.6 99.0996 17.1C99.5996 17.4 100.3 17.6 101.2 17.6Z" fill="#1D5157"/>
<path d="M110.8 19.2V6.1H112.8L113 8.6C113.4 7.7 114 7.1 114.8 6.5C115.6 6 116.6 5.7 117.9 5.7V8H117.3C116.5 8 115.8 8.1 115.2 8.4C114.5 8.7 114 9.1 113.6 9.8C113.2 10.5 113 11.3 113 12.5V19.1H110.8V19.2Z" fill="#1D5157"/>
<path d="M125.9 19.5C124.7 19.5 123.5 19.2 122.5 18.6C121.5 18 120.7 17.2 120.1 16.2C119.5 15.2 119.2 14 119.2 12.6C119.2 11.2 119.5 10 120.1 9C120.7 8 121.5 7.2 122.5 6.6C123.5 6 124.6 5.7 125.9 5.7C127.4 5.7 128.8 6.1 129.8 6.9C130.9 7.7 131.5 8.8 131.8 10.1H129.5C129.3 9.3 128.9 8.7 128.2 8.2C127.5 7.7 126.7 7.5 125.8 7.5C125.1 7.5 124.4 7.7 123.7 8.1C123 8.5 122.5 9 122.1 9.8C121.7 10.5 121.5 11.5 121.5 12.5C121.5 13.6 121.7 14.5 122.1 15.2C122.5 15.9 123 16.5 123.7 16.9C124.4 17.3 125 17.5 125.8 17.5C126.7 17.5 127.5 17.3 128.2 16.8C128.9 16.3 129.3 15.7 129.5 14.9H131.8C131.5 16.2 130.9 17.3 129.8 18.1C128.8 19.1 127.4 19.5 125.9 19.5Z" fill="#1D5157"/>
<path d="M134.9 19.2V6.1H137.1V19.2H134.9ZM135.4 5V3.4L141 0V1.9L135.4 5Z" fill="#1D5157"/>
<path d="M145.1 19.5C144 19.5 143.1 19.3 142.4 18.9C141.7 18.5 141.1 18 140.8 17.4C140.4 16.8 140.3 16.1 140.3 15.4C140.3 14.1 140.8 13 141.8 12.3C142.8 11.6 144.2 11.2 146 11.2H149.5V11C149.5 9.90001 149.2 9.00001 148.6 8.40001C148 7.80001 147.2 7.50001 146.2 7.50001C145.3 7.50001 144.6 7.70001 144 8.10001C143.4 8.50001 143 9.20001 142.8 10H140.5C140.6 9.00001 140.9 8.20001 141.5 7.60001C142.1 7.00001 142.7 6.50001 143.6 6.10001C144.4 5.80001 145.3 5.60001 146.2 5.60001C148 5.60001 149.4 6.10001 150.3 7.10001C151.2 8.10001 151.7 9.40001 151.7 11V19.1H149.7L149.6 16.8C149.2 17.5 148.7 18.2 148 18.7C147.3 19.2 146.3 19.5 145.1 19.5ZM145.5 17.6C146.3 17.6 147.1 17.4 147.7 16.9C148.3 16.5 148.8 15.9 149.1 15.2C149.4 14.5 149.6 13.8 149.6 13H146.2C144.9 13 144 13.2 143.4 13.7C142.9 14.1 142.6 14.7 142.6 15.4C142.6 16.1 142.9 16.6 143.4 17.1C143.9 17.4 144.6 17.6 145.5 17.6Z" fill="#1D5157"/>
<path d="M162.2 19.2V0.699997H164.4V9.1L172.1 0.699997H174.9L168 8.1L175 19.2H172.3L166.4 9.8L164.3 12V19.2H162.2Z" fill="#1D5157"/>
<path d="M178.8 3.2C178.4 3.2 178 3.1 177.7 2.8C177.4 2.5 177.3 2.1 177.3 1.7C177.3 1.3 177.4 0.899997 177.7 0.599997C178 0.299997 178.4 0.199997 178.8 0.199997C179.2 0.199997 179.6 0.299997 179.9 0.599997C180.2 0.899997 180.3 1.2 180.3 1.7C180.3 2.1 180.2 2.5 179.9 2.8C179.6 3 179.2 3.2 178.8 3.2ZM177.7 19.2V6.1H179.9V19.2H177.7Z" fill="#1D5157"/>
<path d="M183.7 19.2V0.199997H185.9V19.2H183.7Z" fill="#1D5157"/>
<path d="M194.6 19.5C193 19.5 191.7 19.1 190.7 18.3C189.7 17.5 189.1 16.4 188.9 15.1H191.2C191.3 15.8 191.7 16.4 192.3 16.9C192.9 17.4 193.7 17.7 194.7 17.7C195.6 17.7 196.3 17.5 196.8 17.1C197.2 16.7 197.5 16.2 197.5 15.7C197.5 14.9 197.2 14.4 196.6 14.1C196 13.8 195.2 13.6 194.2 13.4C193.5 13.3 192.8 13.1 192.1 12.8C191.4 12.5 190.8 12.2 190.3 11.7C189.8 11.2 189.6 10.6 189.6 9.79999C189.6 8.69999 190 7.69999 190.9 6.99999C191.8 6.29999 192.9 5.89999 194.4 5.89999C195.8 5.89999 196.9 6.19999 197.8 6.89999C198.7 7.59999 199.2 8.59999 199.3 9.89999H197C196.9 9.19999 196.6 8.69999 196.1 8.29999C195.6 7.89999 195 7.69999 194.2 7.69999C193.4 7.69999 192.8 7.89999 192.4 8.19999C192 8.49999 191.8 8.99999 191.8 9.49999C191.8 9.99999 192.1 10.4 192.6 10.7C193.1 11 193.9 11.3 194.9 11.5C195.7 11.7 196.5 11.9 197.2 12.1C197.9 12.3 198.5 12.7 199 13.2C199.5 13.7 199.7 14.4 199.7 15.4C199.7 16.6 199.3 17.6 198.4 18.3C197.4 19.1 196.2 19.5 194.6 19.5Z" fill="#1D5157"/>
<path d="M207.4 19.2C206.2 19.2 205.3 18.9 204.6 18.3C203.9 17.7 203.6 16.7 203.6 15.2V8H201.3V6.1H203.6L203.9 3H205.8V6.1H209.7V8H205.8V15.2C205.8 16 206 16.6 206.3 16.9C206.6 17.2 207.2 17.3 208.1 17.3H209.5V19.2H207.4Z" fill="#1D5157"/>
<path d="M218 19.5C216.8 19.5 215.6 19.2 214.7 18.6C213.7 18 213 17.2 212.4 16.2C211.8 15.2 211.6 14 211.6 12.6C211.6 11.2 211.9 10 212.4 9C212.9 8 213.7 7.2 214.7 6.6C215.7 6 216.8 5.7 218.1 5.7C219.4 5.7 220.5 6 221.4 6.6C222.3 7.2 223 7.9 223.5 8.9C224 9.9 224.2 10.8 224.2 11.9C224.2 12.1 224.2 12.3 224.2 12.5C224.2 12.7 224.2 12.9 224.2 13.2H213.8C213.9 14.2 214.1 15 214.5 15.7C214.9 16.4 215.4 16.9 216.1 17.2C216.7 17.5 217.4 17.7 218.1 17.7C219 17.7 219.8 17.5 220.4 17.1C221 16.7 221.5 16.1 221.7 15.4H223.9C223.5 16.6 222.9 17.6 221.9 18.4C220.9 19.2 219.5 19.5 218 19.5ZM218 7.7C216.9 7.7 216 8 215.2 8.7C214.4 9.4 213.9 10.3 213.8 11.5H222C221.9 10.3 221.5 9.4 220.8 8.7C220.1 8 219.1 7.7 218 7.7Z" fill="#1D5157"/>
<path d="M227.1 19.2V6.1H229.1L229.2 8.4C229.6 7.6 230.2 6.9 231 6.4C231.8 5.9 232.7 5.7 233.7 5.7C235.2 5.7 236.5 6.2 237.4 7.1C238.3 8 238.8 9.5 238.8 11.4V19.1H236.6V11.7C236.6 9 235.5 7.6 233.2 7.6C232.1 7.6 231.1 8 230.4 8.8C229.7 9.6 229.3 10.8 229.3 12.3V19.1H227.1V19.2Z" fill="#1D5157"/>
<path d="M240.4 22.3L241.9 16.5H244.2L241.9 22.3H240.4Z" fill="#1D5157"/>
<path d="M76.6997 46V27.5H79.2997L85.9997 40.4L92.5997 27.5H95.1997V46H92.9997V31.5L86.7997 43.4H85.0997L78.8997 31.5V46H76.6997Z" fill="#1D5157"/>
<path d="M103.2 46.3C102.1 46.3 101.2 46.1 100.5 45.7C99.7999 45.3 99.1999 44.8 98.8999 44.2C98.4999 43.6 98.3999 42.9 98.3999 42.2C98.3999 40.9 98.8999 39.8 99.8999 39.1C100.9 38.4 102.3 38 104.1 38H107.6V37.8C107.6 36.7 107.3 35.8 106.7 35.2C106.1 34.6 105.3 34.3 104.3 34.3C103.4 34.3 102.7 34.5 102.1 34.9C101.5 35.3 101.1 36 100.9 36.8H98.5999C98.6999 35.8 98.9999 35 99.5999 34.4C100.2 33.8 100.8 33.3 101.7 32.9C102.5 32.6 103.4 32.4 104.3 32.4C106.1 32.4 107.5 32.9 108.4 33.9C109.3 34.9 109.8 36.2 109.8 37.8V46H107.8L107.7 43.7C107.3 44.4 106.8 45.1 106.1 45.6C105.4 46 104.4 46.3 103.2 46.3ZM103.6 44.4C104.4 44.4 105.2 44.2 105.8 43.7C106.4 43.3 106.9 42.7 107.2 42C107.5 41.3 107.7 40.6 107.7 39.8H104.3C103 39.8 102.1 40 101.5 40.5C101 40.9 100.7 41.5 100.7 42.2C100.7 42.9 101 43.4 101.5 43.9C102 44.2 102.7 44.4 103.6 44.4Z" fill="#1D5157"/>
<path d="M113.2 46V32.9H115.2L115.4 35.4C115.8 34.5 116.4 33.9 117.2 33.3C118 32.8 119 32.5 120.3 32.5V34.8H119.7C118.9 34.8 118.2 34.9 117.6 35.2C116.9 35.5 116.4 35.9 116 36.6C115.6 37.3 115.4 38.1 115.4 39.3V46H113.2Z" fill="#1D5157"/>
<path d="M127.1 46.3C126 46.3 125.1 46.1 124.4 45.7C123.7 45.3 123.1 44.8 122.8 44.2C122.4 43.6 122.3 42.9 122.3 42.2C122.3 40.9 122.8 39.8 123.8 39.1C124.8 38.4 126.2 38 128 38H131.5V37.8C131.5 36.7 131.2 35.8 130.6 35.2C130 34.6 129.2 34.3 128.2 34.3C127.3 34.3 126.6 34.5 126 34.9C125.4 35.3 125 36 124.8 36.8H122.5C122.6 35.8 122.9 35 123.5 34.4C124.1 33.8 124.7 33.3 125.6 32.9C126.4 32.6 127.3 32.4 128.2 32.4C130 32.4 131.4 32.9 132.3 33.9C133.2 34.9 133.7 36.2 133.7 37.8V46H131.7L131.6 43.7C131.2 44.4 130.7 45.1 130 45.6C129.3 46 128.3 46.3 127.1 46.3ZM127.5 44.4C128.3 44.4 129.1 44.2 129.7 43.7C130.3 43.3 130.8 42.7 131.1 42C131.4 41.3 131.6 40.6 131.6 39.8H128.2C126.9 39.8 126 40 125.4 40.5C124.9 40.9 124.6 41.5 124.6 42.2C124.6 42.9 124.9 43.4 125.4 43.9C125.8 44.2 126.5 44.4 127.5 44.4Z" fill="#1D5157"/>
<path d="M137 46V32.9H139L139.1 35.2C139.5 34.4 140.1 33.7 140.9 33.2C141.7 32.7 142.6 32.5 143.6 32.5C145.1 32.5 146.4 33 147.3 33.9C148.2 34.8 148.7 36.3 148.7 38.2V46H146.5V38.6C146.5 35.9 145.4 34.5 143.1 34.5C142 34.5 141 34.9 140.3 35.7C139.6 36.5 139.2 37.7 139.2 39.2V46H137Z" fill="#1D5157"/>
<path d="M157.3 41.9C156.6 41.9 155.9 41.8 155.3 41.6L154 42.8C154.2 42.9 154.4 43.1 154.7 43.2C155 43.3 155.4 43.4 156 43.5C156.5 43.6 157.3 43.7 158.3 43.8C160.1 43.9 161.3 44.3 162.1 45C162.9 45.7 163.2 46.6 163.2 47.7C163.2 48.5 163 49.2 162.6 49.9C162.2 50.6 161.6 51.1 160.7 51.6C159.8 52 158.7 52.3 157.4 52.3C156.2 52.3 155.2 52.1 154.3 51.8C153.4 51.5 152.7 51 152.2 50.4C151.7 49.8 151.4 49 151.4 48C151.4 47.5 151.5 47 151.8 46.4C152.1 45.8 152.6 45.3 153.3 44.8C152.9 44.6 152.6 44.5 152.3 44.3C152 44.1 151.8 43.9 151.5 43.7V43.1L153.7 40.9C152.7 40 152.1 38.9 152.1 37.4C152.1 36.5 152.3 35.8 152.7 35C153.1 34.3 153.7 33.7 154.5 33.3C155.3 32.9 156.2 32.7 157.3 32.7C158.1 32.7 158.7 32.8 159.4 33H164.2V34.7L161.7 34.8C162.2 35.5 162.5 36.4 162.5 37.4C162.5 38.3 162.3 39 161.9 39.7C161.5 40.4 160.9 41 160.1 41.4C159.4 41.7 158.4 41.9 157.3 41.9ZM153.5 47.7C153.5 48.6 153.9 49.2 154.6 49.7C155.3 50.1 156.3 50.3 157.4 50.3C158.5 50.3 159.4 50.1 160 49.6C160.7 49.1 161 48.5 161 47.7C161 47.1 160.8 46.6 160.3 46.2C159.8 45.8 159 45.5 157.8 45.5C156.8 45.4 156 45.3 155.3 45.2C154.6 45.6 154.1 46 153.9 46.5C153.6 46.9 153.5 47.3 153.5 47.7ZM157.3 40C158.2 40 159 39.8 159.5 39.3C160.1 38.8 160.3 38.1 160.3 37.2C160.3 36.3 160 35.6 159.5 35.1C158.9 34.6 158.2 34.4 157.3 34.4C156.3 34.4 155.6 34.6 155 35.1C154.4 35.6 154.2 36.3 154.2 37.2C154.2 38.1 154.5 38.8 155 39.3C155.6 39.8 156.4 40 157.3 40Z" fill="#1D5157"/>
<path d="M172.1 46.3C170.9 46.3 169.7 46 168.8 45.4C167.9 44.8 167.1 44 166.5 43C165.9 42 165.7 40.8 165.7 39.4C165.7 38 166 36.8 166.5 35.8C167 34.8 167.8 34 168.8 33.4C169.8 32.8 170.9 32.5 172.2 32.5C173.5 32.5 174.6 32.8 175.5 33.4C176.4 34 177.1 34.7 177.6 35.7C178.1 36.7 178.3 37.6 178.3 38.7C178.3 38.9 178.3 39.1 178.3 39.3C178.3 39.5 178.3 39.7 178.3 40H167.9C168 41 168.2 41.8 168.6 42.5C169 43.2 169.5 43.7 170.2 44C170.8 44.3 171.5 44.5 172.2 44.5C173.1 44.5 173.9 44.3 174.5 43.9C175.1 43.5 175.6 42.9 175.8 42.2H178C177.6 43.4 177 44.4 176 45.2C175 46 173.6 46.3 172.1 46.3ZM172.1 34.4C171 34.4 170.1 34.7 169.3 35.4C168.5 36.1 168 37 167.9 38.2H176.1C176 37 175.6 36.1 174.9 35.4C174.2 34.7 173.2 34.4 172.1 34.4Z" fill="#1D5157"/>
<path d="M186.2 46.3C184.6 46.3 183.3 45.9 182.3 45.1C181.3 44.3 180.7 43.2 180.5 41.9H182.8C182.9 42.6 183.3 43.2 183.9 43.7C184.5 44.2 185.3 44.5 186.3 44.5C187.2 44.5 187.9 44.3 188.4 43.9C188.8 43.5 189.1 43 189.1 42.5C189.1 41.7 188.8 41.2 188.2 40.9C187.6 40.6 186.8 40.4 185.8 40.2C185.1 40.1 184.4 39.9 183.7 39.6C183 39.3 182.4 39 181.9 38.5C181.4 38 181.2 37.4 181.2 36.6C181.2 35.5 181.6 34.5 182.5 33.8C183.4 33.1 184.5 32.7 186 32.7C187.4 32.7 188.5 33 189.4 33.7C190.3 34.4 190.8 35.4 190.9 36.7H188.7C188.6 36 188.3 35.5 187.8 35.1C187.3 34.7 186.7 34.5 185.9 34.5C185.1 34.5 184.5 34.7 184.1 35C183.7 35.3 183.5 35.8 183.5 36.3C183.5 36.8 183.8 37.2 184.3 37.5C184.8 37.8 185.6 38.1 186.6 38.3C187.4 38.5 188.2 38.7 188.9 38.9C189.6 39.1 190.2 39.5 190.7 40C191.2 40.5 191.4 41.2 191.4 42.2C191.4 43.4 191 44.4 190.1 45.1C189 45.9 187.8 46.3 186.2 46.3Z" fill="#1D5157"/>
<path d="M82.0998 73.1C80.7998 73.1 79.6998 72.9 78.7998 72.4C77.7998 71.9 77.0998 71.3 76.5998 70.4C76.0998 69.5 75.7998 68.6 75.7998 67.4C75.7998 66.2 76.1998 65 76.8998 64.1C77.5998 63.1 78.6998 62.4 80.0998 61.8C79.4998 61.1 79.0998 60.5 78.7998 59.9C78.4998 59.3 78.3998 58.7 78.3998 58C78.3998 56.8 78.7998 55.8 79.6998 55.1C80.5998 54.4 81.6998 54 83.0998 54C84.0998 54 84.8998 54.2 85.5998 54.5C86.2998 54.9 86.7998 55.4 87.1998 56C87.5998 56.6 87.7998 57.4 87.6998 58.2H85.4998C85.4998 57.4 85.2998 56.8 84.7998 56.4C84.2998 56 83.6998 55.8 83.0998 55.8C82.2998 55.8 81.6998 56 81.2998 56.4C80.8998 56.8 80.5998 57.4 80.5998 58C80.5998 58.6 80.7998 59.1 81.0998 59.6C81.3998 60.1 81.8998 60.7 82.4998 61.4L88.2998 67.3C88.7998 66.6 89.3998 65.7 89.9998 64.6L90.7998 63.2H92.9998L91.7998 65.3C90.9998 66.7 90.2998 67.9 89.5998 68.8L93.5998 72.8H90.7998L88.2998 70.3C87.3998 71.3 86.3998 72 85.3998 72.5C84.4998 72.9 83.3998 73.1 82.0998 73.1ZM77.9998 67.4C77.9998 68.5 78.3998 69.4 79.1998 70.1C79.9998 70.8 80.9998 71.2 82.1998 71.2C83.0998 71.2 83.9998 71 84.6998 70.7C85.4998 70.3 86.1998 69.7 86.9998 68.9L81.3998 63.2C80.1998 63.7 79.3998 64.2 78.7998 64.9C78.1998 65.6 77.9998 66.4 77.9998 67.4Z" fill="#1D5157"/>
<path d="M101.8 72.8L108.6 54.3H111L117.8 72.8H115.5L113.8 68H105.9L104.2 72.8H101.8ZM106.5 66.2H113L109.7 57.1L106.5 66.2Z" fill="#1D5157"/>
<path d="M125.4 73.1C123.8 73.1 122.5 72.7 121.5 71.9C120.5 71.1 119.9 70 119.7 68.7H122C122.1 69.4 122.5 70 123.1 70.5C123.7 71 124.5 71.3 125.5 71.3C126.4 71.3 127.1 71.1 127.6 70.7C128 70.3 128.3 69.8 128.3 69.3C128.3 68.5 128 68 127.4 67.7C126.8 67.4 126 67.2 125 67C124.3 66.9 123.6 66.7 122.9 66.4C122.2 66.1 121.6 65.8 121.1 65.3C120.6 64.8 120.4 64.2 120.4 63.4C120.4 62.3 120.8 61.3 121.7 60.6C122.6 59.9 123.7 59.5 125.2 59.5C126.6 59.5 127.7 59.8 128.6 60.5C129.5 61.2 130 62.2 130.1 63.5H127.9C127.8 62.8 127.5 62.3 127 61.9C126.5 61.5 125.9 61.3 125.1 61.3C124.3 61.3 123.7 61.5 123.3 61.8C122.9 62.1 122.7 62.6 122.7 63.1C122.7 63.6 123 64 123.5 64.3C124.1 64.6 124.8 64.9 125.8 65.1C126.6 65.3 127.4 65.5 128.1 65.7C128.8 66 129.4 66.3 129.9 66.8C130.4 67.3 130.6 68 130.6 69C130.6 70.2 130.2 71.2 129.3 71.9C128.2 72.7 126.9 73.1 125.4 73.1Z" fill="#1D5157"/>
<path d="M139.5 73.1C138.3 73.1 137.2 72.8 136.2 72.3C135.2 71.8 134.4 70.9 133.9 69.9C133.3 68.9 133 67.7 133 66.3C133 64.9 133.3 63.7 133.9 62.7C134.5 61.7 135.3 60.9 136.3 60.3C137.3 59.7 138.4 59.5 139.6 59.5C140.8 59.5 141.9 59.8 142.9 60.3C143.9 60.9 144.7 61.7 145.2 62.7C145.8 63.7 146.1 64.9 146.1 66.3C146.1 67.7 145.8 68.9 145.2 69.9C144.6 70.9 143.8 71.7 142.8 72.3C141.9 72.8 140.8 73.1 139.5 73.1ZM139.5 71.2C140.3 71.2 141 71 141.6 70.6C142.3 70.2 142.8 69.7 143.2 68.9C143.6 68.2 143.8 67.2 143.8 66.2C143.8 65.2 143.6 64.2 143.2 63.5C142.8 62.8 142.3 62.2 141.6 61.8C140.9 61.4 140.3 61.2 139.5 61.2C138.7 61.2 138 61.4 137.4 61.8C136.7 62.2 136.2 62.7 135.8 63.5C135.4 64.2 135.2 65.2 135.2 66.2C135.2 67.2 135.4 68.2 135.8 68.9C136.2 69.6 136.7 70.2 137.4 70.6C138.1 71 138.8 71.2 139.5 71.2Z" fill="#1D5157"/>
<path d="M155.2 73.1C154 73.1 152.8 72.8 151.8 72.2C150.8 71.6 150 70.8 149.4 69.8C148.8 68.8 148.5 67.6 148.5 66.2C148.5 64.8 148.8 63.6 149.4 62.6C150 61.6 150.8 60.8 151.8 60.2C152.8 59.6 153.9 59.3 155.2 59.3C156.7 59.3 158.1 59.7 159.1 60.5C160.2 61.3 160.8 62.4 161.1 63.7H158.8C158.6 62.9 158.2 62.3 157.5 61.8C156.8 61.4 156 61.1 155.1 61.1C154.4 61.1 153.7 61.3 153 61.7C152.3 62.1 151.8 62.6 151.4 63.4C151 64.1 150.8 65.1 150.8 66.1C150.8 67.1 151 68.1 151.4 68.8C151.8 69.5 152.3 70.1 153 70.5C153.7 70.9 154.3 71.1 155.1 71.1C156 71.1 156.8 70.9 157.5 70.4C158.2 70 158.6 69.3 158.8 68.5H161.1C160.8 69.8 160.2 70.9 159.1 71.7C158.1 72.7 156.8 73.1 155.2 73.1Z" fill="#1D5157"/>
<path d="M165.6 56.8C165.2 56.8 164.8 56.7 164.5 56.4C164.2 56.1 164.1 55.7 164.1 55.3C164.1 54.9 164.2 54.5 164.5 54.2C164.8 53.9 165.2 53.8 165.6 53.8C166 53.8 166.4 53.9 166.7 54.2C167 54.5 167.1 54.8 167.1 55.3C167.1 55.7 167 56.1 166.7 56.4C166.4 56.6 166 56.8 165.6 56.8ZM164.5 72.8V59.7H166.7V72.8H164.5Z" fill="#1D5157"/>
<path d="M174.9 73.1C173.8 73.1 172.9 72.9 172.2 72.5C171.5 72.1 170.9 71.6 170.6 71C170.2 70.4 170.1 69.7 170.1 69C170.1 67.7 170.6 66.6 171.6 65.9C172.6 65.2 174 64.8 175.8 64.8H179.3V64.6C179.3 63.5 179 62.6 178.4 62C177.8 61.4 177 61.1 176 61.1C175.1 61.1 174.4 61.3 173.8 61.7C173.2 62.1 172.8 62.8 172.6 63.6H170.3C170.4 62.6 170.7 61.8 171.3 61.2C171.9 60.6 172.5 60.1 173.4 59.7C174.2 59.4 175.1 59.2 176 59.2C177.8 59.2 179.2 59.7 180.1 60.7C181 61.7 181.5 63 181.5 64.6V72.7H179.5L179.4 70.4C179 71.1 178.5 71.8 177.8 72.3C177.1 72.8 176.1 73.1 174.9 73.1ZM175.3 71.2C176.1 71.2 176.9 71 177.5 70.5C178.1 70.1 178.6 69.5 178.9 68.8C179.2 68.1 179.4 67.4 179.4 66.6H176C174.7 66.6 173.8 66.8 173.2 67.3C172.7 67.7 172.4 68.3 172.4 69C172.4 69.7 172.7 70.2 173.2 70.7C173.6 71 174.4 71.2 175.3 71.2Z" fill="#1D5157"/>
<path d="M190.8 73.1C189.5 73.1 188.4 72.8 187.4 72.2C186.4 71.6 185.7 70.8 185.1 69.7C184.6 68.7 184.3 67.5 184.3 66.2C184.3 64.9 184.6 63.7 185.1 62.7C185.6 61.7 186.4 60.9 187.4 60.3C188.4 59.7 189.5 59.4 190.8 59.4C191.9 59.4 192.8 59.6 193.7 60.1C194.5 60.5 195.2 61.2 195.6 61.9V53.8H197.8V72.8H195.8L195.6 70.6C195.2 71.2 194.6 71.8 193.8 72.3C193 72.8 192 73.1 190.8 73.1ZM191 71.2C191.9 71.2 192.7 71 193.3 70.6C194 70.2 194.5 69.6 194.9 68.9C195.3 68.2 195.5 67.3 195.5 66.3C195.5 65.3 195.3 64.5 194.9 63.7C194.5 63 194 62.4 193.3 62C192.6 61.6 191.8 61.4 191 61.4C190.1 61.4 189.4 61.6 188.7 62C188 62.4 187.5 63 187.1 63.7C186.7 64.4 186.5 65.3 186.5 66.3C186.5 67.3 186.7 68.1 187.1 68.9C187.5 69.7 188 70.2 188.7 70.6C189.4 70.9 190.2 71.2 191 71.2Z" fill="#1D5157"/>
<path d="M207.4 73.1C206.2 73.1 205.1 72.8 204.1 72.3C203.1 71.8 202.3 70.9 201.8 69.9C201.2 68.9 200.9 67.7 200.9 66.3C200.9 64.9 201.2 63.7 201.8 62.7C202.4 61.7 203.2 60.9 204.2 60.3C205.2 59.7 206.3 59.5 207.5 59.5C208.7 59.5 209.8 59.8 210.8 60.3C211.8 60.9 212.6 61.7 213.1 62.7C213.7 63.7 214 64.9 214 66.3C214 67.7 213.7 68.9 213.1 69.9C212.5 70.9 211.7 71.7 210.7 72.3C209.7 72.8 208.6 73.1 207.4 73.1ZM207.4 71.2C208.2 71.2 208.9 71 209.5 70.6C210.2 70.2 210.7 69.7 211.1 68.9C211.5 68.2 211.7 67.2 211.7 66.2C211.7 65.2 211.5 64.2 211.1 63.5C210.7 62.8 210.2 62.2 209.5 61.8C208.8 61.4 208.2 61.2 207.4 61.2C206.6 61.2 205.9 61.4 205.3 61.8C204.6 62.2 204.1 62.7 203.7 63.5C203.3 64.2 203.1 65.2 203.1 66.2C203.1 67.2 203.3 68.2 203.7 68.9C204.1 69.6 204.6 70.2 205.3 70.6C206 71 206.7 71.2 207.4 71.2Z" fill="#1D5157"/>
<path d="M222.1 73.1C220.5 73.1 219.2 72.7 218.2 71.9C217.2 71.1 216.6 70 216.4 68.7H218.7C218.8 69.4 219.2 70 219.8 70.5C220.4 71 221.2 71.3 222.2 71.3C223.1 71.3 223.8 71.1 224.3 70.7C224.7 70.3 225 69.8 225 69.3C225 68.5 224.7 68 224.1 67.7C223.5 67.4 222.7 67.2 221.7 67C221 66.9 220.3 66.7 219.6 66.4C218.9 66.1 218.3 65.8 217.8 65.3C217.3 64.8 217.1 64.2 217.1 63.4C217.1 62.3 217.5 61.3 218.4 60.6C219.3 59.9 220.4 59.5 221.9 59.5C223.3 59.5 224.4 59.8 225.3 60.5C226.2 61.2 226.7 62.2 226.8 63.5H224.6C224.5 62.8 224.2 62.3 223.7 61.9C223.2 61.5 222.6 61.3 221.8 61.3C221 61.3 220.4 61.5 220 61.8C219.6 62.1 219.4 62.6 219.4 63.1C219.4 63.6 219.7 64 220.2 64.3C220.8 64.6 221.5 64.9 222.5 65.1C223.3 65.3 224.1 65.5 224.8 65.7C225.5 66 226.1 66.3 226.6 66.8C227.1 67.3 227.3 68 227.3 69C227.3 70.2 226.9 71.2 226 71.9C224.9 72.7 223.6 73.1 222.1 73.1Z" fill="#1D5157"/>
</g>
<defs>
<clipPath id="clip0_5_47">
<rect width="244.3" height="73.2" fill="white"/>
</clipPath>
</defs>
</svg>
