<svg xmlns="http://www.w3.org/2000/svg" viewBox="0 0 238.85 72.4"><defs><style>.cls-1{fill:#FFF3E0;}</style></defs><g id="Capa_2" data-name="Capa 2"><g id="Capa_1-2" data-name="Capa 1"><path class="cls-1" d="M31.91,27.31v6.35L52.4,6.35h0l3.81-5.08V0H48.59V1.27L50,3.18,38.11,19.05V10.48a10.48,10.48,0,0,0-21,0V34.3H3.81V6.35L7.62,1.27V0H0V72.4H7.62V71.13L3.81,66.05V38.11H17.15V61.92a10.48,10.48,0,0,0,21,0V53.35L50,69.23l-1.43,1.9V72.4h7.62V71.13L52.4,66.05h0L28.58,34.3H21V10.48a6.67,6.67,0,1,1,13.34,0V24.13Zm-5.23,10.8L34.3,48.27V61.92a6.67,6.67,0,0,1-13.34,0V38.11Z"/><path class="cls-1" d="M84.6,32.57a8.44,8.44,0,0,1-4.54-1.21A8.07,8.07,0,0,1,77,28a10.94,10.94,0,0,1-1.09-5A10.94,10.94,0,0,1,77,18a8.15,8.15,0,0,1,3.12-3.38,9.13,9.13,0,0,1,4.76-1.21A8.62,8.62,0,0,1,90.11,15a6.89,6.89,0,0,1,2.68,4.15H90.23a4.24,4.24,0,0,0-1.76-2.64,6,6,0,0,0-3.55-1,6.81,6.81,0,0,0-3.54.91A6.14,6.14,0,0,0,79.05,19a9,9,0,0,0-.83,4,9.24,9.24,0,0,0,.81,4,6.16,6.16,0,0,0,2.27,2.6,6.23,6.23,0,0,0,3.38.92,5.64,5.64,0,0,0,4.47-1.73,7.9,7.9,0,0,0,1.71-4.74H85.53V22.37h7.6v9.88h-2l-.19-3a7.18,7.18,0,0,1-2.45,2.48A7.36,7.36,0,0,1,84.6,32.57Z"/><path class="cls-1" d="M100.87,32.57A5.93,5.93,0,0,1,98.15,32a3.75,3.75,0,0,1-1.61-1.48,4,4,0,0,1-.53-2,3.55,3.55,0,0,1,1.53-3.09,7.12,7.12,0,0,1,4.17-1.09h3.54V24.2a3.48,3.48,0,0,0-.9-2.6,3.28,3.28,0,0,0-2.4-.89,3.83,3.83,0,0,0-2.23.65,2.82,2.82,0,0,0-1.18,1.89H96.27a4.2,4.2,0,0,1,1-2.41,5.3,5.3,0,0,1,2.07-1.49,6.9,6.9,0,0,1,2.64-.51,5.4,5.4,0,0,1,4.13,1.46,5.43,5.43,0,0,1,1.39,3.9v8.05h-2l-.13-2.35a5.15,5.15,0,0,1-1.63,1.89A4.75,4.75,0,0,1,100.87,32.57Zm.34-1.88a3.61,3.61,0,0,0,2.18-.66,4.23,4.23,0,0,0,1.39-1.71,5.5,5.5,0,0,0,.47-2.22v0H101.9a4.43,4.43,0,0,0-2.76.67,2.1,2.1,0,0,0-.81,1.68,2,2,0,0,0,.76,1.65A3.27,3.27,0,0,0,101.21,30.69Z"/><path class="cls-1" d="M110.8,32.25V19.15h2l.19,2.51a4.76,4.76,0,0,1,1.84-2.06,5.75,5.75,0,0,1,3.07-.76v2.32h-.61a5.55,5.55,0,0,0-2.14.41A3.25,3.25,0,0,0,113.59,23a5.39,5.39,0,0,0-.58,2.7v6.6Z"/><path class="cls-1" d="M125.9,32.57a6.68,6.68,0,0,1-3.37-.86,6.23,6.23,0,0,1-2.35-2.4,7.36,7.36,0,0,1-.86-3.61,7.32,7.32,0,0,1,.86-3.6,6.26,6.26,0,0,1,2.35-2.41,6.67,6.67,0,0,1,3.37-.85,6.29,6.29,0,0,1,3.92,1.21,5.3,5.3,0,0,1,2,3.25h-2.27a2.93,2.93,0,0,0-1.3-1.89,4.25,4.25,0,0,0-2.4-.67,4.12,4.12,0,0,0-2.08.55A4.18,4.18,0,0,0,122.2,23a5.73,5.73,0,0,0-.61,2.75,5.73,5.73,0,0,0,.61,2.75,4.21,4.21,0,0,0,1.59,1.67,4,4,0,0,0,2.08.57,4.25,4.25,0,0,0,2.4-.67,2.94,2.94,0,0,0,1.3-1.92h2.27a5.27,5.27,0,0,1-2,3.22A6.22,6.22,0,0,1,125.9,32.57Z"/><path class="cls-1" d="M134.93,32.25V19.15h2.21v13.1Zm.5-14.18V16.41L141,13.05V15Z"/><path class="cls-1" d="M145.14,32.57a5.89,5.89,0,0,1-2.71-.56,3.77,3.77,0,0,1-1.62-1.48,4,4,0,0,1-.52-2,3.55,3.55,0,0,1,1.53-3.09A7.12,7.12,0,0,1,146,24.35h3.54V24.2a3.48,3.48,0,0,0-.9-2.6,3.28,3.28,0,0,0-2.4-.89,3.81,3.81,0,0,0-2.23.65,2.82,2.82,0,0,0-1.18,1.89h-2.27a4.26,4.26,0,0,1,1-2.41,5.41,5.41,0,0,1,2.08-1.49,6.82,6.82,0,0,1,2.64-.51,5.42,5.42,0,0,1,4.13,1.46,5.47,5.47,0,0,1,1.39,3.9v8.05h-2l-.14-2.35A5.22,5.22,0,0,1,148,31.79,4.76,4.76,0,0,1,145.14,32.57Zm.35-1.88a3.63,3.63,0,0,0,2.18-.66,4.29,4.29,0,0,0,1.38-1.71,5.34,5.34,0,0,0,.48-2.22v0h-3.36a4.37,4.37,0,0,0-2.75.67,2.1,2.1,0,0,0-.81,1.68,2,2,0,0,0,.75,1.65A3.28,3.28,0,0,0,145.49,30.69Z"/><path class="cls-1" d="M162.2,32.25V13.77h2.22v8.37l7.71-8.37h2.8l-6.87,7.36,7,11.12h-2.69l-5.86-9.4L164.42,25v7.21Z"/><path class="cls-1" d="M178.78,16.25a1.52,1.52,0,0,1-1.1-.44,1.47,1.47,0,0,1-.43-1.09,1.42,1.42,0,0,1,.43-1.06,1.62,1.62,0,0,1,2.18,0,1.4,1.4,0,0,1,.45,1.06,1.45,1.45,0,0,1-.45,1.09A1.5,1.5,0,0,1,178.78,16.25Zm-1.11,16V19.15h2.22v13.1Z"/><path class="cls-1" d="M183.74,32.25v-19H186v19Z"/><path class="cls-1" d="M194.62,32.57a6.29,6.29,0,0,1-3.91-1.19,4.68,4.68,0,0,1-1.82-3.22h2.27a3.14,3.14,0,0,0,1.1,1.78,3.56,3.56,0,0,0,2.39.75,3.05,3.05,0,0,0,2.06-.59,1.85,1.85,0,0,0,.66-1.42,1.56,1.56,0,0,0-.86-1.58,11.6,11.6,0,0,0-2.42-.71,14,14,0,0,1-2.11-.61,4.87,4.87,0,0,1-1.77-1.12,2.65,2.65,0,0,1-.71-1.92,3.55,3.55,0,0,1,1.28-2.81,5.15,5.15,0,0,1,3.47-1.09,5.36,5.36,0,0,1,3.42,1,4.2,4.2,0,0,1,1.55,3H197a2.26,2.26,0,0,0-.85-1.57,3.07,3.07,0,0,0-1.94-.57,3,3,0,0,0-1.84.5,1.61,1.61,0,0,0-.65,1.32,1.37,1.37,0,0,0,.84,1.24,8.72,8.72,0,0,0,2.25.77,19.47,19.47,0,0,1,2.31.65,4.36,4.36,0,0,1,1.8,1.13,3.12,3.12,0,0,1,.7,2.18,3.6,3.6,0,0,1-1.33,2.92A5.58,5.58,0,0,1,194.62,32.57Z"/><path class="cls-1" d="M207.4,32.25a4.21,4.21,0,0,1-2.82-.87,4,4,0,0,1-1-3.14V21h-2.28V19.15h2.28l.29-3.14h1.92v3.14h3.86V21h-3.86v7.21a2.15,2.15,0,0,0,.51,1.67,2.71,2.71,0,0,0,1.76.44h1.38v1.9Z"/><path class="cls-1" d="M218,32.57a6.39,6.39,0,0,1-3.32-.86,6.13,6.13,0,0,1-2.29-2.39,7.53,7.53,0,0,1-.83-3.62,7.53,7.53,0,0,1,.82-3.6,6,6,0,0,1,2.28-2.41,6.63,6.63,0,0,1,3.4-.85,6.12,6.12,0,0,1,3.28.85A5.92,5.92,0,0,1,223.43,22a6.41,6.41,0,0,1,.74,3c0,.2,0,.39,0,.58s0,.42,0,.66H213.71a5.15,5.15,0,0,0,.7,2.5A4,4,0,0,0,216,30.19a4.2,4.2,0,0,0,2,.5,4,4,0,0,0,2.3-.63,3.73,3.73,0,0,0,1.35-1.72h2.19a6,6,0,0,1-2,3A5.87,5.87,0,0,1,218,32.57Zm0-11.86a4.45,4.45,0,0,0-2.81,1,3.88,3.88,0,0,0-1.41,2.82H222a3.78,3.78,0,0,0-1.22-2.78A4.12,4.12,0,0,0,218,20.71Z"/><path class="cls-1" d="M227.1,32.25V19.15h2l.13,2.35a4.84,4.84,0,0,1,1.83-1.95,5.08,5.08,0,0,1,2.69-.71,5,5,0,0,1,3.71,1.41,6,6,0,0,1,1.39,4.34v7.66h-2.22V24.83q0-4.09-3.38-4.09A3.63,3.63,0,0,0,230.44,22a5,5,0,0,0-1.13,3.49v6.79Z"/><path class="cls-1" d="M82.12,59.35a7.5,7.5,0,0,1-3.34-.7,5.47,5.47,0,0,1-2.24-1.95,5.72,5.72,0,0,1,.29-6.31A7.29,7.29,0,0,1,80,48.07a7,7,0,0,1-1.29-1.86,4.51,4.51,0,0,1-.4-1.91,3.81,3.81,0,0,1,1.25-2.92A5,5,0,0,1,83,40.23a5.24,5.24,0,0,1,2.48.55,4,4,0,0,1,1.64,1.49,3.74,3.74,0,0,1,.53,2.16H85.48a2.12,2.12,0,0,0-.73-1.79A2.65,2.65,0,0,0,83,42a2.58,2.58,0,0,0-1.85.63,2.13,2.13,0,0,0-.66,1.61A3.28,3.28,0,0,0,81,45.91a9.89,9.89,0,0,0,1.39,1.77l5.84,5.89c.51-.74,1.06-1.63,1.66-2.67l.82-1.43H93l-1.16,2.06A31.63,31.63,0,0,1,89.65,55l4,4H90.84l-2.46-2.48a8.76,8.76,0,0,1-2.9,2.15A8.49,8.49,0,0,1,82.12,59.35ZM78,53.65a3.59,3.59,0,0,0,1.16,2.72,4.3,4.3,0,0,0,3,1.08,6,6,0,0,0,2.55-.54A7.17,7.17,0,0,0,87,55.12l-5.59-5.67a6.1,6.1,0,0,0-2.58,1.74A3.89,3.89,0,0,0,78,53.65Z"/><path class="cls-1" d="M101.82,59l6.81-18.48H111L117.77,59h-2.35l-1.69-4.75h-7.87L104.14,59Zm4.7-6.55h6.55l-3.28-9.13Z"/><path class="cls-1" d="M125.4,59.35a6.27,6.27,0,0,1-3.91-1.19,4.59,4.59,0,0,1-1.82-3.22h2.27A3.1,3.1,0,0,0,123,56.72a3.58,3.58,0,0,0,2.39.75,3,3,0,0,0,2.06-.59,1.85,1.85,0,0,0,.66-1.41,1.57,1.57,0,0,0-.86-1.59,11.48,11.48,0,0,0-2.41-.71,12.62,12.62,0,0,1-2.11-.61A4.59,4.59,0,0,1,121,51.44a2.59,2.59,0,0,1-.72-1.91,3.51,3.51,0,0,1,1.29-2.81,5.16,5.16,0,0,1,3.47-1.1,5.42,5.42,0,0,1,3.42,1,4.21,4.21,0,0,1,1.54,3H127.8a2.27,2.27,0,0,0-.86-1.57,3,3,0,0,0-1.94-.57,2.89,2.89,0,0,0-1.83.51,1.56,1.56,0,0,0-.65,1.32,1.39,1.39,0,0,0,.83,1.24,8.84,8.84,0,0,0,2.26.76,19.47,19.47,0,0,1,2.31.65,4.28,4.28,0,0,1,1.79,1.14,3,3,0,0,1,.7,2.17,3.55,3.55,0,0,1-1.33,2.92A5.52,5.52,0,0,1,125.4,59.35Z"/><path class="cls-1" d="M139.55,59.35a6.55,6.55,0,0,1-3.33-.85,6.18,6.18,0,0,1-2.34-2.39,7.38,7.38,0,0,1-.85-3.63,7.28,7.28,0,0,1,.87-3.63,6.23,6.23,0,0,1,2.36-2.39,7,7,0,0,1,6.67,0,6.16,6.16,0,0,1,2.33,2.39,8,8,0,0,1,0,7.26,6.16,6.16,0,0,1-2.36,2.39A6.61,6.61,0,0,1,139.55,59.35Zm0-1.9a4.22,4.22,0,0,0,2.11-.56,4.09,4.09,0,0,0,1.58-1.66,5.59,5.59,0,0,0,.61-2.75,5.81,5.81,0,0,0-.59-2.74,4.1,4.1,0,0,0-1.57-1.67,4.28,4.28,0,0,0-4.2,0,4.21,4.21,0,0,0-1.59,1.67,6.58,6.58,0,0,0,0,5.49,4.16,4.16,0,0,0,1.58,1.66A4.07,4.07,0,0,0,139.55,57.45Z"/><path class="cls-1" d="M155.23,59.35a6.68,6.68,0,0,1-3.37-.86,6.23,6.23,0,0,1-2.35-2.4,8.07,8.07,0,0,1,0-7.21,6.23,6.23,0,0,1,2.35-2.4,6.68,6.68,0,0,1,3.37-.86,6.33,6.33,0,0,1,3.92,1.21,5.28,5.28,0,0,1,2,3.25H158.9a3,3,0,0,0-1.29-1.89,4.3,4.3,0,0,0-2.41-.67,4.26,4.26,0,0,0-2.08.55,4.21,4.21,0,0,0-1.59,1.67,6.58,6.58,0,0,0,0,5.49,4.3,4.3,0,0,0,1.59,1.68,4.06,4.06,0,0,0,2.08.56,4.3,4.3,0,0,0,2.41-.67,3,3,0,0,0,1.29-1.91h2.27a5.21,5.21,0,0,1-2,3.22A6.22,6.22,0,0,1,155.23,59.35Z"/><path class="cls-1" d="M165.61,43a1.47,1.47,0,0,1-1.53-1.53,1.43,1.43,0,0,1,.43-1.06,1.62,1.62,0,0,1,2.18,0,1.41,1.41,0,0,1,.45,1.06,1.47,1.47,0,0,1-.45,1.1A1.49,1.49,0,0,1,165.61,43ZM164.5,59V45.94h2.22V59Z"/><path class="cls-1" d="M174.93,59.35a5.93,5.93,0,0,1-2.72-.56,3.73,3.73,0,0,1-1.61-1.47,3.93,3.93,0,0,1-.53-2,3.55,3.55,0,0,1,1.53-3.09,7.12,7.12,0,0,1,4.17-1.08h3.54V51a3.49,3.49,0,0,0-.9-2.6,3.28,3.28,0,0,0-2.4-.89,3.83,3.83,0,0,0-2.23.65A2.82,2.82,0,0,0,172.6,50h-2.27a4.17,4.17,0,0,1,1-2.4,5.42,5.42,0,0,1,2.07-1.5,6.9,6.9,0,0,1,2.64-.51A5,5,0,0,1,181.53,51V59h-2l-.13-2.35a5.25,5.25,0,0,1-1.63,1.89A4.75,4.75,0,0,1,174.93,59.35Zm.34-1.88a3.63,3.63,0,0,0,2.18-.66,4.13,4.13,0,0,0,1.38-1.71,5.34,5.34,0,0,0,.48-2.22v0H176a4.32,4.32,0,0,0-2.76.68,2.08,2.08,0,0,0-.81,1.67,2,2,0,0,0,.75,1.65A3.24,3.24,0,0,0,175.27,57.47Z"/><path class="cls-1" d="M190.8,59.35a6.37,6.37,0,0,1-3.42-.9A6.19,6.19,0,0,1,185.1,56a7.69,7.69,0,0,1-.8-3.54,7.39,7.39,0,0,1,.82-3.53,6.11,6.11,0,0,1,2.27-2.43,6.46,6.46,0,0,1,3.43-.88,6,6,0,0,1,2.85.66,4.78,4.78,0,0,1,1.93,1.85V40h2.22V59h-2l-.21-2.16a6.14,6.14,0,0,1-1.82,1.71A5.41,5.41,0,0,1,190.8,59.35Zm.23-1.93a4.45,4.45,0,0,0,2.34-.62A4.2,4.2,0,0,0,195,55.07a6.15,6.15,0,0,0,0-5.17,4.2,4.2,0,0,0-1.58-1.73,4.36,4.36,0,0,0-2.34-.62,4.3,4.3,0,0,0-2.31.62,4.2,4.2,0,0,0-1.58,1.73,6.15,6.15,0,0,0,0,5.17,4.2,4.2,0,0,0,1.58,1.73A4.39,4.39,0,0,0,191,57.42Z"/><path class="cls-1" d="M207.4,59.35a6.55,6.55,0,0,1-3.33-.85,6.09,6.09,0,0,1-2.33-2.39,7.38,7.38,0,0,1-.86-3.63,7.28,7.28,0,0,1,.87-3.63,6.23,6.23,0,0,1,2.36-2.39,6.71,6.71,0,0,1,3.34-.84,6.59,6.59,0,0,1,3.33.84,6.11,6.11,0,0,1,2.34,2.39,7.38,7.38,0,0,1,.86,3.63,7.28,7.28,0,0,1-.88,3.63,6.1,6.1,0,0,1-2.36,2.39A6.59,6.59,0,0,1,207.4,59.35Zm0-1.9a4.14,4.14,0,0,0,3.7-2.22,6.53,6.53,0,0,0,0-5.49,4,4,0,0,0-1.57-1.67,4.27,4.27,0,0,0-2.09-.55,4.31,4.31,0,0,0-2.11.55,4.12,4.12,0,0,0-1.58,1.67,6.48,6.48,0,0,0,0,5.49,4.14,4.14,0,0,0,1.57,1.66A4.07,4.07,0,0,0,207.4,57.45Z"/><path class="cls-1" d="M222.08,59.35a6.29,6.29,0,0,1-3.91-1.19,4.66,4.66,0,0,1-1.82-3.22h2.27a3.11,3.11,0,0,0,1.1,1.78,3.56,3.56,0,0,0,2.39.75,3,3,0,0,0,2.06-.59,1.85,1.85,0,0,0,.66-1.41,1.59,1.59,0,0,0-.86-1.59,11.6,11.6,0,0,0-2.42-.71,12.9,12.9,0,0,1-2.11-.61,4.74,4.74,0,0,1-1.77-1.12,2.62,2.62,0,0,1-.71-1.91,3.53,3.53,0,0,1,1.28-2.81,5.16,5.16,0,0,1,3.47-1.1,5.42,5.42,0,0,1,3.42,1,4.22,4.22,0,0,1,1.55,3h-2.2a2.26,2.26,0,0,0-.85-1.57,3.07,3.07,0,0,0-1.94-.57,2.9,2.9,0,0,0-1.84.51,1.58,1.58,0,0,0-.65,1.32,1.38,1.38,0,0,0,.84,1.24,8.75,8.75,0,0,0,2.25.76,19.47,19.47,0,0,1,2.31.65,4.38,4.38,0,0,1,1.8,1.14,3.09,3.09,0,0,1,.7,2.17,3.58,3.58,0,0,1-1.33,2.92A5.53,5.53,0,0,1,222.08,59.35Z"/></g></g></svg>